custom-analysis
version=1
nRows=4
nColumns=98
inDegrees=no

This file contains tibia displacement and acting force.

Units are S.I. units (seconds, meters, Newtons, ...)
Angles are in degrees.

endheader
time	APT	SIT	knee_angle	aACL_R_force	pACL_R_force	aPCL_R_force	pPCL_R_force	aMCL_R_force	mMCL_R_force	pMCL_R_force	aLCL_R_force	mLCL_R_force	pLCL_R_force	aPCL_L_force	pPCL_L_force	aMCL_L_force	aLCL_L_force	aACL_R_length	pACL_R_length	aPCL_R_length	pPCL_R_length	aMCL_R_length	mMCL_R_length	pMCL_R_length	aLCL_R_length	mLCL_R_length	pLCL_R_length	aPCL_L_length	pPCL_L_length	aMCL_L_length	aLCL_L_length	aACL_R_strain	pACL_R_strain	aPCL_R_strain	pPCL_R_strain	aMCL_R_strain	mMCL_R_strain	pMCL_R_strain	aLCL_R_strain	mLCL_R_strain	pLCL_R_strain	aPCL_L_strain	pPCL_L_strain	aMCL_L_strain	aLCL_L_strain	femur_lat_meniscii_r.femur_lat_r.force.X	femur_lat_meniscii_r.femur_lat_r.force.Y	femur_lat_meniscii_r.femur_lat_r.force.Z	femur_lat_meniscii_r.femur_lat_r.torque.X	femur_lat_meniscii_r.femur_lat_r.torque.Y	femur_lat_meniscii_r.femur_lat_r.torque.Z	femur_lat_meniscii_r.meniscus_lat_r.force.X	femur_lat_meniscii_r.meniscus_lat_r.force.Y	femur_lat_meniscii_r.meniscus_lat_r.force.Z	femur_lat_meniscii_r.meniscus_lat_r.torque.X	femur_lat_meniscii_r.meniscus_lat_r.torque.Y	femur_lat_meniscii_r.meniscus_lat_r.torque.Z	femur_med_meniscii_r.femur_med_r.force.X	femur_med_meniscii_r.femur_med_r.force.Y	femur_med_meniscii_r.femur_med_r.force.Z	femur_med_meniscii_r.femur_med_r.torque.X	femur_med_meniscii_r.femur_med_r.torque.Y	femur_med_meniscii_r.femur_med_r.torque.Z	femur_med_meniscii_r.meniscus_med_r.force.X	femur_med_meniscii_r.meniscus_med_r.force.Y	femur_med_meniscii_r.meniscus_med_r.force.Z	femur_med_meniscii_r.meniscus_med_r.torque.X	femur_med_meniscii_r.meniscus_med_r.torque.Y	femur_med_meniscii_r.meniscus_med_r.torque.Z	femur_med_tibia_r.tibia_upper_r.force.X	femur_med_tibia_r.tibia_upper_r.force.Y	femur_med_tibia_r.tibia_upper_r.force.Z	femur_med_tibia_r.tibia_upper_r.torque.X	femur_med_tibia_r.tibia_upper_r.torque.Y	femur_med_tibia_r.tibia_upper_r.torque.Z	femur_med_tibia_r.femur_med_r.force.X	femur_med_tibia_r.femur_med_r.force.Y	femur_med_tibia_r.femur_med_r.force.Z	femur_med_tibia_r.femur_med_r.torque.X	femur_med_tibia_r.femur_med_r.torque.Y	femur_med_tibia_r.femur_med_r.torque.Z	femur_lat_tibia_r.tibia_upper_r.force.X	femur_lat_tibia_r.tibia_upper_r.force.Y	femur_lat_tibia_r.tibia_upper_r.force.Z	femur_lat_tibia_r.tibia_upper_r.torque.X	femur_lat_tibia_r.tibia_upper_r.torque.Y	femur_lat_tibia_r.tibia_upper_r.torque.Z	femur_lat_tibia_r.femur_lat_r.force.X	femur_lat_tibia_r.femur_lat_r.force.Y	femur_lat_tibia_r.femur_lat_r.force.Z	femur_lat_tibia_r.femur_lat_r.torque.X	femur_lat_tibia_r.femur_lat_r.torque.Y	femur_lat_tibia_r.femur_lat_r.torque.Z	femur_lat_meniscii_force_r	femur_med_meniscii_force_r	femur_lat_tibia_force_r	femur_med_tibia_force_r
      0.17176128	      0.01194135	      0.01577986	     56.49023578	     28.20655822	     18.55740666	    826.27970423	    529.41211914	      0.00000000	      0.00000000	      0.00000000	    -18.95839300	      0.00000000	      0.00000000	      0.00000000	      0.00000000	      0.00000001	      0.00000000	      0.03276197	      0.02609445	      0.03636970	      0.03343629	      0.05901906	      0.05857750	      0.05555177	      0.05610825	      0.05137816	      0.04654734	      0.01525851	      0.01651186	      0.06550154	      0.04489616	      0.05665017	      0.04133296	      0.16962040	      0.11872690	     -0.01679139	     -0.02033660	     -0.05408374	      0.00234111	     -0.08772309	     -0.11071948	      0.00000079	     -0.32847694	      0.00000060	     -0.00000086	    418.49851676	    299.11996101	    107.55873412	    -50.55346097	     10.41547129	    167.72597539	   -418.49851676	   -299.11996101	   -107.55873412	      9.68067926	    -13.36041027	     -0.50488728	    755.80257209	    439.78742016	    -56.28708079	     30.97559263	    -14.06914249	    301.07005283	   -755.80257209	   -439.78742016	     56.28708079	     -8.27323165	     13.46386002	     -0.96020589	   -139.15056947	   -297.11373452	     99.13913315	     -6.32935176	      4.25123472	      3.94418971	    139.15056947	    297.11373452	    -99.13913315	     45.26392735	     -2.69256646	     55.37517212	      0.00000000	      0.00000000	      0.00000000	      0.00000000	      0.00000000	      0.00000000	      0.00000000	      0.00000000	      0.00000000	      0.00000000	      0.00000000	      0.00000000	    525.53081821	    876.25266811	      0.00000000	    342.73607914
      0.17199562	      0.01195493	      0.01581909	     56.59935912	     27.94121425	     18.32843857	    828.12673334	    530.04984701	      0.00000000	      0.00000000	      0.00000000	    -19.67315448	      0.00000000	      0.00000000	      0.00000000	      0.00000000	      0.00000001	      0.00000000	      0.03276433	      0.02609769	      0.03638150	      0.03344412	      0.05902643	      0.05857765	      0.05554692	      0.05610329	      0.05136871	      0.04653458	      0.01525851	      0.01651186	      0.06550154	      0.04489616	      0.05672630	      0.04146206	      0.17000006	      0.11898909	     -0.01666866	     -0.02033412	     -0.05416625	      0.00225245	     -0.08789081	     -0.11096335	      0.00000079	     -0.32847694	      0.00000060	     -0.00000086	    423.74112930	    305.12048317	    109.39940628	    -51.43667795	     10.55467653	    169.78592261	   -423.74112930	   -305.12048317	   -109.39940628	      9.86146660	    -13.54722817	     -0.40460291	    750.43240445	    440.71742572	    -56.81869819	     31.19514786	    -13.96344919	    298.86332496	   -750.43240445	   -440.71742572	     56.81869819	     -8.28669157	     13.38685277	     -0.77251349	   -140.54170685	   -298.42420603	     99.12190274	     -6.34058504	      4.27351804	      3.96451919	    140.54170685	    298.42420603	    -99.12190274	     45.27221909	     -2.71362821	     55.93169973	      0.00000000	      0.00000000	      0.00000000	      0.00000000	      0.00000000	      0.00000000	      0.00000000	      0.00000000	      0.00000000	      0.00000000	      0.00000000	      0.00000000	    533.50096908	    872.12900849	      0.00000000	    344.43305549
      0.17222996	      0.01196843	      0.01585850	     56.70845365	     27.82632610	     18.26326711	    829.89272064	    530.50278104	      0.00000000	      0.00000000	      0.00000000	    -20.46771360	      0.00000000	      0.00000000	      0.00000000	      0.00000000	      0.00000001	      0.00000000	      0.03276654	      0.02610079	      0.03639313	      0.03345179	      0.05903360	      0.05857762	      0.05554193	      0.05609814	      0.05135909	      0.04652166	      0.01525851	      0.01651186	      0.06550154	      0.04489616	      0.05679780	      0.04158597	      0.17037406	      0.11924577	     -0.01654929	     -0.02033467	     -0.05425133	      0.00216050	     -0.08806162	     -0.11121024	      0.00000079	     -0.32847694	      0.00000060	     -0.00000086	    428.90978596	    312.45038422	    110.55480910	    -52.06920642	     10.68312786	    171.79847142	   -428.90978596	   -312.45038422	   -110.55480910	     10.05894227	    -13.71026980	     -0.25961913	    745.32508540	    436.96469883	    -56.77359428	     31.09530852	    -13.84488022	    296.81394367	   -745.32508540	   -436.96469883	     56.77359428	     -8.21371166	     13.28547720	     -0.72931174	   -142.25150623	   -299.44547411	     99.54953907	     -6.36143821	      4.31174679	      3.96760526	    142.25150623	    299.44547411	    -99.54953907	     45.46127771	     -2.74290593	     56.62326652	      0.00000000	      0.00000000	      0.00000000	      0.00000000	      0.00000000	      0.00000000	      0.00000000	      0.00000000	      0.00000000	      0.00000000	      0.00000000	      0.00000000	    542.04355259	    865.83536077	      0.00000000	    346.14042485
      0.17227276	      0.01197089	      0.01586572	     56.72837813	     27.84103198	     18.27683928	    830.20626899	    530.56495111	      0.00000000	      0.00000000	      0.00000000	    -20.57310322	      0.00000000	      0.00000000	      0.00000000	      0.00000000	      0.00000001	      0.00000000	      0.03276694	      0.02610135	      0.03639524	      0.03345317	      0.05903489	      0.05857760	      0.05554100	      0.05609718	      0.05135732	      0.04651928	      0.01525851	      0.01651186	      0.06550154	      0.04489616	      0.05681063	      0.04160836	      0.17044169	      0.11929196	     -0.01652778	     -0.02033505	     -0.05426711	      0.00214334	     -0.08809316	     -0.11125567	      0.00000079	     -0.32847694	      0.00000060	     -0.00000086	    429.91837755	    313.59795459	    110.85554318	    -52.21724508	     10.70921305	    172.19502999	   -429.91837755	   -313.59795459	   -110.85554318	     10.09244602	    -13.74451850	     -0.24069827	    744.90224332	    433.27224688	    -59.32307553	     32.08819801	    -13.86421608	    296.67868841	   -744.90224332	   -433.27224688	     59.32307553	     -8.23031716	     13.35514816	     -0.82039368	   -142.51971346	   -299.60949800	     99.63384153	     -6.36518035	      4.31839850	      3.96892450	    142.51971346	    299.60949800	    -99.63384153	     45.49809130	     -2.74770407	     56.73139712	      0.00000000	      0.00000000	      0.00000000	      0.00000000	      0.00000000	      0.00000000	      0.00000000	      0.00000000	      0.00000000	      0.00000000	      0.00000000	      0.00000000	    543.56456832	    863.78435926	      0.00000000	    346.41683330
